<svg width="251" height="101" viewBox="0 0 251 101" fill="none" xmlns="http://www.w3.org/2000/svg">
<path d="M46.3941 63.6188L46.0378 63.9663C45.7513 64.2456 45.2871 64.2199 45.0333 63.9105V63.9105C44.8809 63.7247 44.8139 63.4833 44.8487 63.2456L46.3941 52.6968H40.7939C39.8659 52.6968 39.8819 52.1975 40.1859 51.667C40.4899 51.1365 40.2659 51.5421 40.2979 51.4797C42.3429 47.9551 45.4088 42.7151 49.48 35.7293C49.5553 35.6001 49.6484 35.4805 49.7556 35.3761L49.9464 35.1899C50.235 34.9085 50.7028 34.9344 50.9584 35.2461V35.2461C51.1086 35.4291 51.1746 35.667 51.1403 35.9012L49.5941 46.4556H55.1943C55.9783 46.4556 56.0903 46.9705 55.9463 47.2513L55.8343 47.4854C49.5301 58.2358 46.3941 63.6188 46.3941 63.6188Z" fill="#323232"/>
<circle cx="60.75" cy="42.75" r="2.75" fill="#ECBB0D"/>
<circle cx="34.75" cy="55.75" r="2.75" fill="#ECBB0D"/>
<path d="M85 41.664V45.28H75.688V51.008H82.824V54.56H75.688V64H71.208V41.664H85Z" fill="#403D3D"/>
<path d="M92.6568 49.024C93.2328 48.0853 93.9794 47.3493 94.8968 46.816C95.8354 46.2827 96.9021 46.016 98.0968 46.016V50.72H96.9128C95.5048 50.72 94.4381 51.0507 93.7128 51.712C93.0088 52.3733 92.6568 53.5253 92.6568 55.168V64H88.1768V46.272H92.6568V49.024Z" fill="#403D3D"/>
<path d="M105.594 48V64H101.114V48H105.594Z" fill="#403D3D"/>
<path d="M126.501 54.752C126.501 55.392 126.458 55.968 126.373 56.48H113.413C113.519 57.76 113.967 58.7627 114.757 59.488C115.546 60.2133 116.517 60.576 117.669 60.576C119.333 60.576 120.517 59.8613 121.221 58.432H126.053C125.541 60.1387 124.559 61.5467 123.109 62.656C121.658 63.744 119.877 64.288 117.765 64.288C116.058 64.288 114.522 63.9147 113.157 63.168C111.813 62.4 110.757 61.3227 109.989 59.936C109.242 58.5493 108.869 56.9493 108.869 55.136C108.869 53.3013 109.242 51.6907 109.989 50.304C110.735 48.9173 111.781 47.8507 113.125 47.104C114.469 46.3573 116.015 45.984 117.765 45.984C119.45 45.984 120.954 46.3467 122.277 47.072C123.621 47.7973 124.655 48.832 125.381 50.176C126.127 51.4987 126.501 53.024 126.501 54.752ZM121.861 53.472C121.839 52.32 121.423 51.4027 120.613 50.72C119.802 50.016 118.81 49.664 117.637 49.664C116.527 49.664 115.589 50.0053 114.821 50.688C114.074 51.3493 113.615 52.2773 113.445 53.472H121.861Z" fill="#403D3D"/>
<path d="M139.595 46.016C141.707 46.016 143.413 46.688 144.715 48.032C146.016 49.3547 146.667 51.2107 146.667 53.6V64H142.187V54.208C142.187 52.8 141.835 51.7227 141.131 50.976C140.427 50.208 139.467 49.824 138.251 49.824C137.013 49.824 136.032 50.208 135.307 50.976C134.603 51.7227 134.251 52.8 134.251 54.208V64H129.771V46.272H134.251V48.48C134.848 47.712 135.605 47.1147 136.523 46.688C137.461 46.24 138.485 46.016 139.595 46.016Z" fill="#403D3D"/>
<path d="M167.407 54.752C167.407 55.392 167.364 55.968 167.279 56.48H154.319C154.425 57.76 154.873 58.7627 155.663 59.488C156.452 60.2133 157.423 60.576 158.575 60.576C160.239 60.576 161.423 59.8613 162.127 58.432H166.959C166.447 60.1387 165.465 61.5467 164.015 62.656C162.564 63.744 160.783 64.288 158.671 64.288C156.964 64.288 155.428 63.9147 154.063 63.168C152.719 62.4 151.663 61.3227 150.895 59.936C150.148 58.5493 149.775 56.9493 149.775 55.136C149.775 53.3013 150.148 51.6907 150.895 50.304C151.641 48.9173 152.687 47.8507 154.031 47.104C155.375 46.3573 156.921 45.984 158.671 45.984C160.356 45.984 161.86 46.3467 163.183 47.072C164.527 47.7973 165.561 48.832 166.287 50.176C167.033 51.4987 167.407 53.024 167.407 54.752ZM162.767 53.472C162.745 52.32 162.329 51.4027 161.519 50.72C160.708 50.016 159.716 49.664 158.543 49.664C157.433 49.664 156.495 50.0053 155.727 50.688C154.98 51.3493 154.521 52.2773 154.351 53.472H162.767Z" fill="#403D3D"/>
<path d="M175.157 49.024C175.733 48.0853 176.479 47.3493 177.397 46.816C178.335 46.2827 179.402 46.016 180.597 46.016V50.72H179.413C178.005 50.72 176.938 51.0507 176.213 51.712C175.509 52.3733 175.157 53.5253 175.157 55.168V64H170.677V46.272H175.157V49.024Z" fill="#403D3D"/>
<path d="M190.558 45.984C191.881 45.984 193.044 46.2507 194.046 46.784C195.049 47.296 195.838 47.968 196.414 48.8V46.272H200.926V64.128C200.926 65.7707 200.596 67.232 199.934 68.512C199.273 69.8133 198.281 70.8373 196.958 71.584C195.636 72.352 194.036 72.736 192.158 72.736C189.641 72.736 187.572 72.1493 185.95 70.976C184.35 69.8027 183.444 68.2027 183.23 66.176H187.678C187.913 66.9867 188.414 67.6267 189.182 68.096C189.972 68.5867 190.921 68.832 192.03 68.832C193.332 68.832 194.388 68.4373 195.198 67.648C196.009 66.88 196.414 65.7067 196.414 64.128V61.376C195.838 62.208 195.038 62.9013 194.014 63.456C193.012 64.0107 191.86 64.288 190.558 64.288C189.065 64.288 187.7 63.904 186.462 63.136C185.225 62.368 184.244 61.2907 183.518 59.904C182.814 58.496 182.462 56.8853 182.462 55.072C182.462 53.28 182.814 51.6907 183.518 50.304C184.244 48.9173 185.214 47.8507 186.43 47.104C187.668 46.3573 189.044 45.984 190.558 45.984ZM196.414 55.136C196.414 54.048 196.201 53.12 195.774 52.352C195.348 51.5627 194.772 50.9653 194.046 50.56C193.321 50.1333 192.542 49.92 191.71 49.92C190.878 49.92 190.11 50.1227 189.406 50.528C188.702 50.9333 188.126 51.5307 187.678 52.32C187.252 53.088 187.038 54.0053 187.038 55.072C187.038 56.1387 187.252 57.0773 187.678 57.888C188.126 58.6773 188.702 59.2853 189.406 59.712C190.132 60.1387 190.9 60.352 191.71 60.352C192.542 60.352 193.321 60.1493 194.046 59.744C194.772 59.3173 195.348 58.72 195.774 57.952C196.201 57.1627 196.414 56.224 196.414 55.136Z" fill="#403D3D"/>
<path d="M222.262 46.272L211.286 72.384H206.518L210.358 63.552L203.254 46.272H208.278L212.854 58.656L217.494 46.272H222.262Z" fill="#403D3D"/>
<circle cx="103.35" cy="42.3024" r="2.75" fill="#ECBB0D"/>
</svg>
